<svg xmlns="http://www.w3.org/2000/svg" xmlns:xlink="http://www.w3.org/1999/xlink" style="margin:auto;background:transparent;display:block;z-index:1;position:relative" width="770" height="519" preserveAspectRatio="xMidYMid" viewBox="0 0 770 519">
<g transform=""><linearGradient id="lg-0.9348064949065227" x1="0" x2="1" y1="0" y2="0">
  <stop stop-color="#f20fc4" offset="0"></stop>
  <stop stop-color="#00e5ff" offset="1"></stop>
</linearGradient><path d="M 615.137 260 C 615.137 324.788 505.14 420.577 443.831 440.492 C 382.521 460.407 262.368 428.111 224.495 376.28 C 186.622 324.45 174.72 186.254 212.593 134.423 C 250.466 82.5927 373.648 85.6905 434.958 105.127 C 496.267 124.563 615.137 195.212 615.137 260" fill="url(#lg-0.9348064949065227)" opacity="0.33">
  <animate attributeName="d" dur="7.142857142857142s" repeatCount="indefinite" keyTimes="0;0.3333333333333333;0.6666666666666666;1" calcmod="spline" keySplines="0.3 0.1 0.7 0.9;0.3 0.1 0.7 0.9;0.3 0.1 0.7 0.9" begin="-2.8571428571428568s" values="M 573 260 C 573 320 497 411 440 429 C 383 447 282 408 247 360 C 212 312 191 192 226 144 C 261 96 377 90 434 108 C 491 126 573 200 573 260;M 661 260 C 661 330 514 431 448 453 C 382 475 241 450 200 394 C 159 338 157 180 198 124 C 239 68 370 81 436 102 C 502 123 661 190 661 260;M 621 260 C 621 331 509 412 442 434 C 375 456 264 435 222 378 C 180 321 179 197 221 140 C 263 83 370 79 437 101 C 504 123 621 189 621 260;M 573 260 C 573 320 497 411 440 429 C 383 447 282 408 247 360 C 212 312 191 192 226 144 C 261 96 377 90 434 108 C 491 126 573 200 573 260"></animate>
</path><path d="M 621.886 260 C 621.886 322.915 493.225 388.407 433.31 407.886 C 373.394 427.365 254 432.436 217.042 381.479 C 180.085 330.521 187.283 193.508 224.241 142.55 C 261.199 91.5927 381 69.2963 440.915 88.7752 C 500.831 108.254 621.886 197.085 621.886 260" fill="url(#lg-0.9348064949065227)" opacity="0.33">
  <animate attributeName="d" dur="7.142857142857142s" repeatCount="indefinite" keyTimes="0;0.3333333333333333;0.6666666666666666;1" calcmod="spline" keySplines="0.3 0.1 0.7 0.9;0.3 0.1 0.7 0.9;0.3 0.1 0.7 0.9" begin="-2.8571428571428568s" values="M 608 260 C 608 321 487 375 429 394 C 371 413 254 431 218 381 C 182 331 205 205 241 155 C 277 105 381 76 439 95 C 497 114 608 199 608 260;M 637 260 C 637 325 500 403 438 423 C 376 443 254 434 216 382 C 178 330 168 181 206 129 C 244 77 381 62 443 82 C 505 102 637 195 637 260;M 605 260 C 605 326 496 389 434 409 C 372 429 264 429 225 376 C 186 323 191 200 230 147 C 269 94 368 101 430 121 C 492 141 605 194 605 260;M 608 260 C 608 321 487 375 429 394 C 371 413 254 431 218 381 C 182 331 205 205 241 155 C 277 105 381 76 439 95 C 497 114 608 199 608 260"></animate>
</path><path d="M 612.14 260 C 612.14 328.31 511.013 426.632 445.704 447.59 C 380.394 468.547 253.283 440.196 212.889 384.844 C 172.495 329.492 163.831 183.661 204.225 128.309 C 244.619 72.9577 373.606 73.7752 438.436 95.2117 C 503.267 116.648 612.14 191.691 612.14 260" fill="url(#lg-0.9348064949065227)" opacity="0.33">
  <animate attributeName="d" dur="7.142857142857142s" repeatCount="indefinite" keyTimes="0;0.3333333333333333;0.6666666666666666;1" calcmod="spline" keySplines="0.3 0.1 0.7 0.9;0.3 0.1 0.7 0.9;0.3 0.1 0.7 0.9" begin="-2.8571428571428568s" values="M 604 260 C 604 324 500 407 439 427 C 378 447 271 422 233 370 C 195 318 160 176 198 124 C 236 72 376 80 437 100 C 498 120 604 196 604 260;M 621 260 C 621 333 523 448 453 470 C 383 492 234 460 191 401 C 148 342 168 192 211 133 C 254 74 371 67 440 90 C 509 113 621 187 621 260;M 603 260 C 603 330 499 383 432 405 C 365 427 248 446 207 389 C 166 332 141 169 182 112 C 223 55 378 52 445 74 C 512 96 603 190 603 260;M 604 260 C 604 324 500 407 439 427 C 378 447 271 422 233 370 C 195 318 160 176 198 124 C 236 72 376 80 437 100 C 498 120 604 196 604 260"></animate>
</path><path d="M 632.831 260 C 632.831 324.436 495.085 391.902 434.127 411.381 C 373.169 430.86 247.352 438.564 209.873 386.606 C 172.394 334.648 184.902 193.733 222.86 141.775 C 260.818 89.8175 380.958 65.2963 441.915 84.7752 C 502.873 104.254 632.831 195.564 632.831 260" fill="url(#lg-0.9348064949065227)" opacity="0.33">
  <animate attributeName="d" dur="7.142857142857142s" repeatCount="indefinite" keyTimes="0;0.3333333333333333;0.6666666666666666;1" calcmod="spline" keySplines="0.3 0.1 0.7 0.9;0.3 0.1 0.7 0.9;0.3 0.1 0.7 0.9" begin="-2.8571428571428568s" values="M 629 260 C 629 323 497 401 437 420 C 377 439 244 440 207 389 C 170 338 194 199 231 148 C 268 97 380 72 440 91 C 500 110 629 197 629 260;M 637 260 C 637 326 493 382 431 402 C 369 422 251 437 213 384 C 175 331 175 188 214 135 C 253 82 382 58 444 78 C 506 98 637 194 637 260;M 651 260 C 651 336 523 441 451 464 C 379 487 250 450 206 389 C 162 328 146 179 190 118 C 234 57 378 35 450 58 C 522 81 651 184 651 260;M 629 260 C 629 323 497 401 437 420 C 377 439 244 440 207 389 C 170 338 194 199 231 148 C 268 97 380 72 440 91 C 500 110 629 197 629 260"></animate>
</path><path d="M 642.264 260 C 642.264 328.661 505.801 407.026 440.14 428.42 C 374.479 449.815 234.423 453.759 194.114 398.055 C 153.804 342.352 155.101 177.86 195.889 122.156 C 236.677 66.4525 373 73.6219 438.661 95.016 C 504.323 116.41 642.264 191.339 642.264 260" fill="url(#lg-0.9348064949065227)" opacity="0.33">
  <animate attributeName="d" dur="7.142857142857142s" repeatCount="indefinite" keyTimes="0;0.3333333333333333;0.6666666666666666;1" calcmod="spline" keySplines="0.3 0.1 0.7 0.9;0.3 0.1 0.7 0.9;0.3 0.1 0.7 0.9" begin="-2.8571428571428568s" values="M 603 260 C 603 321 490 385 432 404 C 374 423 244 437 208 388 C 172 339 180 186 216 137 C 252 88 373 99 431 118 C 489 137 603 199 603 260;M 685 260 C 685 337 523 431 449 455 C 375 479 224 472 179 409 C 134 346 128 169 174 106 C 220 43 373 46 447 70 C 521 94 685 183 685 260;M 595 260 C 595 325 493 382 431 402 C 369 422 266 426 228 373 C 190 320 163 177 201 125 C 239 73 383 55 445 75 C 507 95 595 195 595 260;M 603 260 C 603 321 490 385 432 404 C 374 423 244 437 208 388 C 172 339 180 186 216 137 C 252 88 373 99 431 118 C 489 137 603 199 603 260"></animate>
</path></g>
</svg>
